<svg width="129" height="87" viewBox="0 0 129 87" fill="none" xmlns="http://www.w3.org/2000/svg">
<path fill-rule="evenodd" clip-rule="evenodd" d="M49.9679 29.8656C50.3632 30.4252 50.4779 31.1648 50.3114 32.0841C50.1448 33.0035 49.7492 34.063 49.1251 35.262C48.5005 36.4613 47.793 37.7006 47.0022 38.9798C46.2113 40.2589 45.3685 41.5481 44.4734 42.8473C43.5785 44.1463 42.7773 45.3356 42.0696 46.415C39.4473 46.8147 36.5648 47.4144 33.4223 48.2139C30.2795 49.0134 27.1161 49.9228 23.9319 50.942C20.7476 51.9615 17.6987 53.0507 14.785 54.2099C11.8712 55.3692 9.33207 56.4886 7.16769 57.5678C8.49957 55.8489 10.0814 53.9402 11.9129 51.8415C13.7443 49.7428 15.7526 47.6342 17.9379 45.5156C20.1232 43.397 22.4333 41.3482 24.8684 39.3696C27.3035 37.3908 29.8008 35.6317 32.3607 34.0929C34.9208 32.5538 37.4805 31.3247 40.0406 30.4051C42.6004 29.4858 45.1083 29.0261 47.5641 29.0261C48.7712 29.0261 49.5724 29.3058 49.9679 29.8656V29.8656ZM120.002 38.8221C119.63 39.5304 119.634 40.4102 120.155 41.085C120.309 41.2841 120.524 41.4894 120.769 41.6548C120.93 41.7631 121.104 41.8543 121.281 41.9157C122.146 42.2148 122.83 42.0763 123.541 41.685C124.104 41.3754 124.321 41.1024 125.089 40.7697C125.919 40.4102 126.437 40.4063 127.346 40.5244C127.61 40.5587 127.689 40.6142 127.81 40.6064C127.846 40.6039 127.887 40.5958 127.936 40.5798L128.015 40.4668L127.99 40.3173C127.971 40.2828 127.858 40.1883 127.713 40.0763C127.435 39.8616 127.041 39.5827 126.975 39.5387C126.544 39.248 126.134 38.9568 125.678 38.6961C124.334 37.9276 122.358 37.0402 120.88 37.9002C120.497 38.1233 120.197 38.4489 120.002 38.8221V38.8221ZM64.9816 47.0767C64.6947 47.3522 64.3002 47.7312 63.7976 48.2139C63.1732 48.8135 62.5072 49.4131 61.7995 50.0125C61.092 50.6124 60.4156 51.1419 59.7705 51.6016C59.1252 52.0615 58.6362 52.2912 58.3031 52.2912C57.9702 52.2912 57.9078 52.0714 58.1159 51.6317C58.324 51.1919 58.6256 50.6822 59.0211 50.1025C59.4166 49.523 59.7912 48.9334 60.1451 48.3337C60.4989 47.7341 60.6548 47.2744 60.6134 46.9545C60.53 46.595 60.3323 46.285 60.0201 46.0252C59.7079 45.7654 59.3646 45.5655 58.99 45.4256C58.6153 45.2856 58.2512 45.2158 57.8974 45.2158C57.5435 45.2158 57.325 45.2958 57.2417 45.4556C57.1167 45.5755 56.8984 45.7154 56.5862 45.8753C56.2739 46.0354 55.9409 46.1751 55.5871 46.295C55.2334 46.415 54.8899 46.4849 54.557 46.505C54.2239 46.5249 53.9743 46.455 53.8077 46.295C54.4737 45.6955 54.8172 45.0858 54.8379 44.4662C54.8586 43.8467 54.6818 43.3669 54.3072 43.0271C53.9327 42.6873 53.4227 42.5575 52.7774 42.6373C52.1323 42.7173 51.4768 43.1372 50.8108 43.8965C50.1864 44.5761 49.9159 45.2058 49.999 45.7853C50.0824 46.365 50.3738 46.8548 50.8732 47.2545C51.3728 47.6543 52.0179 47.934 52.8087 48.0938C53.5995 48.2537 54.3696 48.2338 55.1188 48.0339C54.7859 48.7136 54.4841 49.3431 54.2135 49.9228C53.943 50.5023 53.8077 51.0519 53.8077 51.5717C53.766 52.1712 53.9743 52.7011 54.432 53.1606C54.8899 53.6203 55.431 53.9901 56.0554 54.2698C56.6797 54.5497 57.2937 54.7496 57.8974 54.8697C58.5008 54.9895 58.9691 54.9895 59.302 54.8697C60.0514 54.5898 60.8006 54.11 61.5497 53.4305C62.2991 52.7509 63.0068 52.0314 63.6726 51.2719C63.7532 51.1802 63.8325 51.0891 63.9109 50.9985C63.8395 52.0513 64.0201 52.9519 64.4531 53.7003C64.9734 54.5997 66.0868 55.0494 67.7934 55.0494C68.6259 55.0494 69.6145 54.7297 70.7592 54.0901C71.9039 53.4504 73.0069 52.721 74.0683 51.9016C75.1298 51.082 76.0558 50.2825 76.8467 49.5031C77.6377 48.7235 78.1371 48.2139 78.3452 47.974C78.7198 47.4942 78.7407 47.1146 78.4078 46.8347C78.0747 46.5548 77.5334 46.6549 76.7843 47.1345C76.4097 47.3343 75.7333 47.7841 74.755 48.4836C73.7768 49.1832 72.7571 49.8927 71.6958 50.6124C70.6344 51.3318 69.6458 51.9514 68.73 52.4712C67.8142 52.9908 67.2315 53.1707 66.9817 53.0109C66.6904 52.8108 66.6384 52.4411 66.8256 51.9016C67.013 51.3617 67.3565 50.7322 67.8559 50.0125C68.3554 49.2931 68.9694 48.5137 69.6977 47.6742C70.4261 46.8347 71.1651 46.0354 71.9143 45.2757C72.6634 44.5162 73.3919 43.8166 74.0996 43.177C74.8071 42.5374 75.39 42.0578 75.8477 41.7379C79.3025 41.578 82.8615 41.488 86.5244 41.4681C87.9139 41.4606 89.293 41.4559 90.6618 41.4541C91.7082 41.4526 92.7484 41.453 93.7827 41.4549C94.9612 41.4572 96.1318 41.4616 97.2947 41.4681C100.812 41.488 104.142 41.5181 107.285 41.5581C110.427 41.5981 113.195 41.628 115.589 41.6481C116.755 41.6578 117.81 41.6628 118.754 41.663C118.141 40.682 118.098 39.5034 118.516 38.4859C118.068 38.4152 117.644 38.38 117.243 38.38C116.869 38.38 115.87 38.4401 114.246 38.56C112.623 38.6798 110.583 38.8198 108.127 38.9798C105.672 39.1397 102.924 39.2995 99.8858 39.4594C97.3146 39.5948 94.6987 39.7014 92.0381 39.7795C91.5545 39.7937 91.0693 39.8069 90.5827 39.8191C90.0564 39.836 89.5319 39.8521 89.0092 39.867C87.0521 39.9235 85.1208 39.9675 83.2152 39.9991C80.801 40.0391 78.5326 40.059 76.4097 40.059C76.0768 39.5793 75.6188 39.1496 75.0361 38.7698C74.4532 38.3902 73.9122 38.2002 73.4128 38.2002C72.8716 38.2002 72.3098 38.38 71.7271 38.7399C71.1442 39.0997 70.5198 39.5593 69.8538 40.119C67.4396 40.199 66.1285 40.3389 65.9203 40.5386C65.4626 41.0184 66.2118 41.4582 68.168 41.8579C67.1691 43.097 66.2742 44.4861 65.4834 46.0252C65.3005 46.3811 65.1333 46.7317 64.9816 47.0767V47.0767ZM51.172 86.966C65.6699 73.0408 80.1689 59.1164 94.669 45.193C93.6304 45.1901 92.5917 45.1888 91.5531 45.1891L51.172 83.9698L23.6291 57.5186C22.8386 57.7525 22.0506 57.9941 21.2653 58.2434C31.2346 67.8173 41.2036 77.3915 51.172 86.966ZM20.5249 32.9618L51.172 3.52965L85.2149 36.2231C86.2286 36.2005 87.2421 36.1743 88.2556 36.1465C75.8949 24.2751 63.5331 12.4045 51.172 0.533447L6.952 43.0007L6.17193 43.7498L6.66094 44.2194C7.00921 43.8603 7.36127 43.5048 7.71711 43.1529C11.3758 39.5337 15.4032 36.2917 19.75 33.4595C20.0072 33.292 20.2656 33.126 20.5249 32.9618V32.9618ZM54.3072 29.266C53.6829 28.7064 52.8296 28.2865 51.7474 28.0066C50.6651 27.7269 49.4163 27.587 48.0011 27.587C43.7555 27.587 39.3849 28.4064 34.8895 30.0454C30.3941 31.6844 26.0755 33.853 21.9339 36.5513C17.7922 39.2496 13.9836 42.3176 10.508 45.7553C7.03233 49.1931 4.19156 52.731 1.98552 56.3685C1.7772 56.7285 1.51704 57.1981 1.20506 57.7778C0.892871 58.3573 0.632713 58.9771 0.424389 59.6364C0.216464 60.2961 0.0811066 60.9356 0.0187092 61.5553C-0.0436882 62.175 0.0500044 62.7245 0.299594 63.2043C0.424389 63.484 0.684547 63.7239 1.08006 63.9237C1.47558 64.1236 1.89183 64.2835 2.32881 64.4035C2.76579 64.5234 3.1613 64.5733 3.51495 64.5534C3.86881 64.5333 4.0875 64.4433 4.17063 64.2835C4.37875 63.7239 4.59724 63.1043 4.8263 62.4247C5.05515 61.7452 5.4401 60.9256 5.98135 59.9663C8.81176 58.767 11.6111 57.6577 14.3791 56.6385C15.9404 56.0633 17.5049 55.5202 19.0728 55.0089C19.5585 54.8505 20.0443 54.6953 20.5307 54.5431C21.2577 54.3152 21.9858 54.0943 22.7144 53.8802C25.5032 53.0606 28.3439 52.3213 31.2369 51.6617C34.1298 51.002 37.1163 50.4123 40.1967 49.8927C39.6971 50.7722 39.1247 51.7015 38.4796 52.681C37.8343 53.6604 37.1685 54.6497 36.4815 55.6491C35.7947 56.6484 35.108 57.6177 34.4212 58.5572C33.7344 59.4966 33.0997 60.366 32.5168 61.1655C32.1422 61.6451 32.1528 62.0249 32.5481 62.3048C32.9434 62.5847 33.4847 62.7745 34.1714 62.8744C34.8582 62.9743 35.5659 62.9644 36.2943 62.8443C37.0228 62.7245 37.5325 62.4848 37.824 62.1249C38.1985 61.7251 38.8126 60.9656 39.6658 59.8464C40.5192 58.7272 41.4972 57.378 42.6005 55.799C43.7035 54.2201 44.8792 52.4811 46.128 50.5823C47.3767 48.6835 48.5735 46.7847 49.7181 44.8859C50.8628 42.9873 51.9034 41.1384 52.84 39.3396C53.7766 37.5407 54.4946 35.9616 54.994 34.6025C55.4519 33.3632 55.608 32.3041 55.4623 31.4246C55.3166 30.5451 54.9316 29.8256 54.3072 29.266V29.266Z" fill="#7D56D9"/>
<path d="M41.1976 65.64C40.8593 65.7857 40.5894 66.0034 40.3899 66.2963C40.1905 66.589 40.0906 66.9164 40.0906 67.2778C40.0906 67.6395 40.1905 67.9667 40.3899 68.2596C40.5894 68.5525 40.8593 68.7702 41.1976 68.9159C41.4466 69.0233 41.7058 69.0786 41.9769 69.0786C42.4438 69.0786 42.8483 68.9201 43.2081 68.623C43.2779 68.5655 43.3588 68.5472 43.434 68.5472C43.5245 68.5472 43.6094 68.5814 43.6826 68.6555C43.745 68.7187 43.7691 68.7984 43.7617 68.8889C43.7541 68.9793 43.7177 69.0547 43.6487 69.1112C43.4089 69.3078 43.1459 69.4627 42.858 69.5668C42.566 69.6723 42.2705 69.7187 41.9769 69.7187C41.623 69.7187 41.2716 69.649 40.9265 69.5017C40.4584 69.3019 40.0944 68.9992 39.8309 68.6013C39.5673 68.2037 39.4355 67.7624 39.4355 67.2778C39.4355 66.7862 39.5673 66.3432 39.8309 65.9492C40.0944 65.555 40.4584 65.254 40.9265 65.0542C41.2716 64.9069 41.623 64.8372 41.9769 64.8372C42.2705 64.8372 42.566 64.8836 42.858 64.9891C43.1459 65.0932 43.4085 65.2487 43.6487 65.4447C43.7097 65.4945 43.7537 65.5705 43.7617 65.6725C43.7689 65.7662 43.7376 65.8444 43.6826 65.9003C43.6094 65.9746 43.5245 66.0087 43.434 66.0087C43.3437 66.0087 43.2713 65.9768 43.2081 65.922C43.0379 65.7742 42.8429 65.667 42.6322 65.5912C42.4213 65.5152 42.2028 65.4773 41.9769 65.4773C41.7058 65.4773 41.4466 65.5326 41.1976 65.64V65.64ZM44.4008 69.7187C44.3105 69.7187 44.2314 69.688 44.1636 69.6264C44.0958 69.5649 44.0619 69.4908 44.0619 69.4041V66.7573C44.0619 66.4969 44.1148 66.2511 44.2202 66.0196C44.3255 65.7882 44.4686 65.5856 44.6494 65.4121C44.83 65.2385 45.0409 65.1012 45.282 65C45.5228 64.8987 45.779 64.8481 46.0501 64.8481H46.6035C46.6938 64.8481 46.7729 64.8788 46.8407 64.9402C46.9085 65.0017 46.9424 65.0758 46.9424 65.1627C46.9424 65.2494 46.9085 65.3235 46.8407 65.385C46.7729 65.4464 46.6938 65.4773 46.6035 65.4773H46.0501C45.8693 65.4773 45.698 65.5115 45.5359 65.5802C45.3741 65.649 45.2349 65.7413 45.1181 65.8569C45.0015 65.9725 44.9072 66.1083 44.8358 66.2637C44.7642 66.4192 44.7284 66.5837 44.7284 66.7573V69.4041C44.7284 69.4908 44.6965 69.5649 44.6325 69.6264C44.5685 69.688 44.4911 69.7187 44.4008 69.7187V69.7187ZM50.0118 69.4257C49.8312 69.5197 49.641 69.5921 49.4415 69.6427C49.2419 69.6934 49.0368 69.7187 48.8259 69.7187C48.472 69.7187 48.1425 69.6553 47.8375 69.5287C47.5325 69.4022 47.2633 69.2268 47.0299 69.0026C46.7965 68.7786 46.6138 68.52 46.4821 68.2271C46.3503 67.9341 46.2843 67.6179 46.2843 67.2778C46.2843 66.9453 46.3503 66.6307 46.4821 66.3342C46.6138 66.0376 46.7965 65.7773 47.0299 65.5531C47.2633 65.3291 47.5325 65.1535 47.8375 65.027C48.1425 64.9004 48.472 64.8372 48.8259 64.8372C49.1721 64.8372 49.4999 64.9004 49.8085 65.027C50.1173 65.1535 50.3884 65.3291 50.6218 65.5531C50.8553 65.7773 51.0379 66.0376 51.1697 66.3342C51.3014 66.6307 51.3672 66.9453 51.3672 67.2778V69.3932C51.3672 69.4799 51.3353 69.5559 51.2713 69.621C51.2073 69.6861 51.1264 69.7187 51.0285 69.7187C50.938 69.7187 50.8609 69.6861 50.7969 69.621C50.7329 69.5559 50.7008 69.4799 50.7008 69.3932V68.9159C50.5126 69.1185 50.2829 69.2885 50.0118 69.4257V69.4257ZM46.9507 67.2778C46.9507 67.5239 46.9998 67.757 47.0977 67.9776C47.1956 68.1981 47.3291 68.3898 47.4986 68.5525C47.668 68.7153 47.8676 68.8435 48.0972 68.9377C48.3269 69.0317 48.5699 69.0786 48.8259 69.0786C49.0818 69.0786 49.3246 69.0317 49.5545 68.9377C49.7842 68.8435 49.9837 68.7153 50.1532 68.5525C50.3224 68.3898 50.4562 68.1981 50.554 67.9776C50.6519 67.757 50.7008 67.5239 50.7008 67.2778C50.7008 67.032 50.6519 66.7988 50.554 66.5783C50.4562 66.3577 50.3224 66.1661 50.1532 66.0034C49.9837 65.8406 49.7842 65.7122 49.5545 65.6182C49.3246 65.5242 49.0818 65.4773 48.8259 65.4773C48.5699 65.4773 48.3269 65.5242 48.0972 65.6182C47.8676 65.7122 47.668 65.8406 47.4986 66.0034C47.3291 66.1661 47.1956 66.3577 47.0977 66.5783C46.9998 66.7988 46.9507 67.032 46.9507 67.2778ZM52.3387 69.7187C52.2483 69.7187 52.1692 69.688 52.1014 69.6264C52.0338 69.5649 51.9998 69.4908 51.9998 69.4041V64.631C51.9998 64.3563 52.0412 64.0797 52.1242 63.8013C52.2069 63.5229 52.3237 63.2715 52.4742 63.0474C52.6399 62.787 52.847 62.5844 53.0956 62.4399C53.3741 62.2735 53.6715 62.1904 53.9879 62.1904C54.0858 62.1904 54.1667 62.2211 54.2307 62.2825C54.2947 62.344 54.3268 62.4217 54.3268 62.5159C54.3268 62.6026 54.2947 62.6767 54.2307 62.7382C54.1667 62.7996 54.0858 62.8304 53.9879 62.8304C53.7317 62.8304 53.5248 62.8955 53.3665 63.0257C53.2084 63.1557 53.0842 63.2932 52.9939 63.4379C52.8885 63.6041 52.8075 63.7923 52.7509 64.0019C52.6945 64.2116 52.6662 64.4214 52.6662 64.631V64.8372H55.1922C55.2901 64.8372 55.371 64.8698 55.435 64.9349C55.499 65 55.5311 65.0758 55.5311 65.1627C55.5311 65.2494 55.499 65.3235 55.435 65.385C55.371 65.4464 55.2901 65.4773 55.1922 65.4773H52.6662V69.4041C52.6662 69.4908 52.6343 69.5649 52.5703 69.6264C52.5063 69.688 52.4292 69.7187 52.3387 69.7187V69.7187ZM55.6934 65.4773V67.2778C55.6934 67.4877 55.7235 67.6973 55.7839 67.9071C55.8441 68.1168 55.9268 68.3048 56.0323 68.4712C56.1152 68.6159 56.2356 68.7532 56.3937 68.8834C56.552 69.0135 56.7589 69.0786 57.0151 69.0786C57.113 69.0786 57.1939 69.1094 57.2579 69.1709C57.3219 69.2324 57.354 69.3065 57.354 69.3932C57.354 69.4872 57.3219 69.5649 57.2579 69.6264C57.1939 69.688 57.113 69.7187 57.0151 69.7187C56.6987 69.7187 56.4013 69.6356 56.1226 69.4692C55.8742 69.3244 55.6671 69.1221 55.5014 68.8617C55.3509 68.6375 55.2341 68.3862 55.1513 68.1078C55.0684 67.8294 55.0269 67.5528 55.0269 67.2778V62.505C55.0269 62.4183 55.0608 62.344 55.1286 62.2825C55.1964 62.2211 55.2755 62.1904 55.3658 62.1904C55.4563 62.1904 55.5335 62.2211 55.5975 62.2825C55.6615 62.344 55.6934 62.4183 55.6934 62.505V64.8372H57.0151C57.113 64.8372 57.1939 64.8679 57.2579 64.9293C57.3219 64.991 57.354 65.0687 57.354 65.1627C57.354 65.2494 57.3219 65.3235 57.2579 65.385C57.1939 65.4464 57.113 65.4773 57.0151 65.4773H55.6934V65.4773ZM59.5225 65.488C59.3118 65.488 59.131 65.5586 58.9805 65.6995C58.8298 65.8406 58.7544 66.016 58.7544 66.2256C58.7544 66.4355 58.8298 66.6108 58.9805 66.7517C59.131 66.8928 59.3118 66.9633 59.5225 66.9633H60.9571C61.1528 66.9633 61.3374 66.9995 61.5105 67.0718C61.6837 67.1442 61.8362 67.2436 61.968 67.3701C62.0998 67.4967 62.2034 67.6431 62.2786 67.8095C62.3539 67.9759 62.3916 68.153 62.3916 68.341C62.3916 68.529 62.3539 68.708 62.2786 68.878C62.2034 69.048 62.0998 69.1943 61.968 69.3174C61.8362 69.4403 61.6837 69.5379 61.5105 69.6101C61.3374 69.6825 61.1528 69.7187 60.9571 69.7187H57.0151C56.9172 69.7187 56.8361 69.688 56.7723 69.6264C56.7083 69.5649 56.6762 69.4908 56.6762 69.4041C56.6762 69.3174 56.7083 69.2431 56.7723 69.1816C56.8361 69.1202 56.9172 69.0895 57.0151 69.0895H60.9571C61.168 69.0895 61.3486 69.0172 61.4993 68.8726C61.6498 68.7279 61.7252 68.5508 61.7252 68.341C61.7252 68.1386 61.6498 67.965 61.4993 67.8202C61.3486 67.6757 61.168 67.6033 60.9571 67.6033H59.5225C59.3268 67.6033 59.1404 67.5671 58.9635 67.4949C58.7865 67.4226 58.634 67.3249 58.506 67.202C58.378 67.0791 58.2764 66.9327 58.201 66.7626C58.1257 66.5926 58.088 66.4138 58.088 66.2256C58.088 66.0376 58.1257 65.8605 58.201 65.6942C58.2764 65.5278 58.378 65.3813 58.506 65.2548C58.634 65.1282 58.7865 65.0289 58.9635 64.9565C59.1404 64.8841 59.3268 64.8481 59.5225 64.8481H62.0527C62.1506 64.8481 62.2315 64.8788 62.2955 64.9402C62.3595 65.0017 62.3916 65.0758 62.3916 65.1627C62.3916 65.2567 62.3595 65.3344 62.2955 65.3959C62.2315 65.4573 62.1506 65.488 62.0527 65.488H59.5225V65.488Z" fill="#7D56D9"/>
</svg>
