<svg viewBox="0 0 50 50" xmlns="http://www.w3.org/2000/svg">
	<path d="M24.9998 16.6669C20.3975 16.6669 16.6665 20.3979 16.6665 25.0003C16.6665 29.6026 20.3975 33.3336 24.9998 33.3336C29.6022 33.3336 33.3332 29.6026 33.3332 25.0003C33.3332 20.3979 29.6022 16.6669 24.9998 16.6669ZM24.9998 16.6669H44.104M8.229 12.6253L17.7915 29.1669M22.6665 45.7086L32.2082 29.1669M45.8332 25.0003C45.8332 36.5062 36.5058 45.8336 24.9998 45.8336C13.4939 45.8336 4.1665 36.5062 4.1665 25.0003C4.1665 13.4943 13.4939 4.16693 24.9998 4.16693C36.5058 4.16693 45.8332 13.4943 45.8332 25.0003Z" stroke="currentColor" stroke-width="2" />
</svg>
