<svg width="20" height="25" viewBox="0 0 20 25" fill="none" xmlns="http://www.w3.org/2000/svg">
<path d="M19 10.2151C19 17.2151 10 23.2151 10 23.2151C10 23.2151 1 17.2151 1 10.2151C1 7.82814 1.94821 5.53895 3.63604 3.85113C5.32387 2.1633 7.61305 1.21509 10 1.21509C12.3869 1.21509 14.6761 2.1633 16.364 3.85113C18.0518 5.53895 19 7.82814 19 10.2151Z" stroke="#7F56D9" stroke-width="2" stroke-linecap="round" stroke-linejoin="round"/>
<path d="M10 13.2151C11.6569 13.2151 13 11.8719 13 10.2151C13 8.55823 11.6569 7.21509 10 7.21509C8.34315 7.21509 7 8.55823 7 10.2151C7 11.8719 8.34315 13.2151 10 13.2151Z" stroke="#7F56D9" stroke-width="2" stroke-linecap="round" stroke-linejoin="round"/>
</svg>
