<svg width="23" height="23" viewBox="0 0 23 23" fill="none" xmlns="http://www.w3.org/2000/svg">
<path d="M21.1376 16.3852V19.3852C21.1388 19.6637 21.0817 19.9394 20.9701 20.1945C20.8586 20.4497 20.6949 20.6788 20.4897 20.8671C20.2845 21.0553 20.0422 21.1987 19.7784 21.2879C19.5146 21.3771 19.235 21.4103 18.9576 21.3852C15.8805 21.0508 12.9246 19.9993 10.3276 18.3152C7.91146 16.7798 5.86296 14.7314 4.32763 12.3152C2.63761 9.70639 1.58587 6.73618 1.25763 3.64518C1.23264 3.36865 1.2655 3.08995 1.35413 2.82681C1.44275 2.56367 1.5852 2.32187 1.77239 2.11681C1.95959 1.91174 2.18743 1.74789 2.44142 1.63571C2.69541 1.52352 2.96997 1.46545 3.24763 1.46518H6.24763C6.73293 1.46041 7.20342 1.63226 7.57139 1.94872C7.93936 2.26517 8.17971 2.70463 8.24763 3.18518C8.37425 4.14525 8.60908 5.08791 8.94763 5.99519C9.08217 6.35311 9.11129 6.7421 9.03154 7.11607C8.95178 7.49003 8.76649 7.8333 8.49763 8.10519L7.22763 9.37518C8.65118 11.8787 10.7241 13.9516 13.2276 15.3752L14.4976 14.1052C14.7695 13.8363 15.1128 13.651 15.4867 13.5713C15.8607 13.4915 16.2497 13.5206 16.6076 13.6552C17.5149 13.9937 18.4576 14.2286 19.4176 14.3552C19.9034 14.4237 20.347 14.6684 20.6642 15.0427C20.9813 15.417 21.1498 15.8948 21.1376 16.3852Z" stroke="#7F56D9" stroke-width="2" stroke-linecap="round" stroke-linejoin="round"/>
</svg>
